<?xml version="1.0" encoding="UTF-8" standalone="no"?>
<!-- Created with Inkscape (http://www.inkscape.org/) -->

<svg
   xmlns:dc="http://purl.org/dc/elements/1.1/"
   xmlns:cc="http://creativecommons.org/ns#"
   xmlns:rdf="http://www.w3.org/1999/02/22-rdf-syntax-ns#"
   xmlns:svg="http://www.w3.org/2000/svg"
   xmlns="http://www.w3.org/2000/svg"
   xmlns:sodipodi="http://sodipodi.sourceforge.net/DTD/sodipodi-0.dtd"
   xmlns:inkscape="http://www.inkscape.org/namespaces/inkscape"
   id="svg4155"
   version="1.1"
   inkscape:version="0.91 r13725"
   xml:space="preserve"
   width="325"
   height="372.5"
   viewBox="0 0 325 372.5"
   sodipodi:docname="onsug-new.svg"><metadata
     id="metadata4161"><rdf:RDF><cc:Work
         rdf:about=""><dc:format>image/svg+xml</dc:format><dc:type
           rdf:resource="http://purl.org/dc/dcmitype/StillImage" /><dc:title></dc:title></cc:Work></rdf:RDF></metadata><defs
     id="defs4159"><clipPath
       clipPathUnits="userSpaceOnUse"
       id="clipPath4169"><path
         d="M 0,792 612,792 612,0 0,0 0,792 Z"
         id="path4171"
         inkscape:connector-curvature="0" /></clipPath></defs><sodipodi:namedview
     pagecolor="#ffffff"
     bordercolor="#666666"
     borderopacity="1"
     objecttolerance="10"
     gridtolerance="10"
     guidetolerance="10"
     inkscape:pageopacity="0"
     inkscape:pageshadow="2"
     inkscape:window-width="1283"
     inkscape:window-height="782"
     id="namedview4157"
     showgrid="false"
     fit-margin-top="0"
     fit-margin-left="0"
     fit-margin-right="0"
     fit-margin-bottom="0"
     inkscape:zoom="0.84747475"
     inkscape:cx="162.44388"
     inkscape:cy="186.82012"
     inkscape:window-x="175"
     inkscape:window-y="31"
     inkscape:window-maximized="0"
     inkscape:current-layer="g4163" /><g
     id="g4163"
     inkscape:groupmode="layer"
     inkscape:label="onsug"
     transform="matrix(1.25,0,0,-1.25,-220.05612,680.67988)"><g
       id="g4165"><g
         id="g4167"
         clip-path="url(#clipPath4169)"><g
           id="g4173"
           transform="translate(408.0449,544.5439)"><path
             d="m 0,0 -16,0 c -8.6,0 -17.719,-3.777 -23.799,-9.857 l -18.344,-18.344 c -0.998,-0.998 -1.934,-2.079 -2.802,-3.226 C -66.844,-26.787 -74.613,-24 -82,-24 l -40,0 c -14.081,0 -25.769,-10.449 -27.715,-24 L -180,-48 c -8.6,0 -17.719,-3.777 -23.799,-9.857 l -18.344,-18.344 C -228.223,-82.281 -232,-91.4 -232,-100 l 0,-40 c 0,-14.081 10.449,-25.769 24,-27.715 l 0,-30.285 c 0,-8.6 3.777,-17.719 9.857,-23.799 l 18.344,-18.344 c 6.08,-6.08 15.199,-9.857 23.799,-9.857 l 30.264,0 c 0.955,-7.338 4.45,-14.655 9.593,-19.799 l 18.344,-18.344 C -91.719,-294.223 -82.6,-298 -74,-298 l 40,0 c 8.6,0 17.719,3.777 23.799,9.857 l 18.344,18.344 C 14.223,-263.719 18,-254.6 18,-246 l 0,40 c 0,14.192 -10.613,25.953 -24.32,27.76 0.211,1.383 0.32,2.799 0.32,4.24 l 0,11.29 c 2.122,1.316 4.082,2.851 5.799,4.567 l 18.344,18.344 C 24.223,-133.719 28,-124.6 28,-116 l 0,40 c 0,5.944 -1.861,11.462 -5.033,16 3.172,4.538 5.033,10.056 5.033,16 l 0,16 C 28,-12.561 15.439,0 0,0"
             style="fill:#000000;fill-opacity:1;fill-rule:nonzero;stroke:none"
             id="path4175"
             inkscape:connector-curvature="0" /></g><g
           id="g4177"
           transform="translate(408.0449,520.5439)"><path
             d="m 0,0 c 2.2,0 4,-1.8 4,-4 l 0,-16 c 0,-2.2 -1.8,-4 -4,-4 l -16,0 c -2.2,0 -4,-1.8 -4,-4 l 0,-16 c 0,-2.2 1.8,-4 4,-4 l 16,0 c 2.2,0 4,-1.8 4,-4 l 0,-40 c 0,-2.2 -1.272,-5.272 -2.828,-6.828 l -18.344,-18.344 C -18.728,-118.728 -21.8,-120 -24,-120 l -16,0 c -2.2,0 -4,1.8 -4,4 l 0,16 c 0,2.2 1.8,4 4,4 l 16,0 c 2.2,0 4,1.8 4,4 l 0,16 c 0,2.2 -1.8,4 -4,4 l -16,0 c -2.2,0 -4,1.8 -4,4 l 0,40 c 0,2.2 1.272,5.272 2.828,6.828 l 18.344,18.344 C -21.272,-1.272 -18.2,0 -16,0 L 0,0"
             style="fill:#ffffff;fill-opacity:1;fill-rule:nonzero;stroke:none"
             id="path4179"
             inkscape:connector-curvature="0" /></g><g
           id="g4181"
           transform="translate(326.0449,496.5439)"><path
             d="M 0,0 C 2.2,0 5.272,-1.272 6.828,-2.828 L 25.172,-21.172 C 26.728,-22.728 28,-25.8 28,-28 l 0,-64 c 0,-2.2 -1.8,-4 -4,-4 l -16,0 c -2.2,0 -4,1.8 -4,4 l 0,64 c 0,2.2 -1.8,4 -4,4 l -16,0 c -2.2,0 -4,-1.8 -4,-4 l 0,-64 c 0,-2.2 -1.8,-4 -4,-4 l -16,0 c -2.2,0 -4,1.8 -4,4 l 0,88 c 0,2.2 1.8,4 4,4 L 0,0"
             style="fill:#ffffff;fill-opacity:1;fill-rule:nonzero;stroke:none"
             id="path4183"
             inkscape:connector-curvature="0" /></g><g
           id="g4185"
           transform="translate(228.0449,424.5439)"><path
             d="m 0,0 16,0 c 2.2,0 4,1.8 4,4 l 0,16 c 0,2.2 -1.8,4 -4,4 L 0,24 c -2.2,0 -4,-1.8 -4,-4 L -4,4 C -4,1.8 -2.2,0 0,0 m 40,48 c 2.2,0 4,-1.8 4,-4 L 44,4 C 44,1.8 42.728,-1.272 41.172,-2.828 L 22.828,-21.172 C 21.272,-22.728 18.2,-24 16,-24 l -40,0 c -2.2,0 -4,1.8 -4,4 l 0,40 c 0,2.2 1.272,5.272 2.828,6.828 L -6.828,45.172 C -5.272,46.728 -2.2,48 0,48 l 40,0"
             style="fill:#ffffff;fill-opacity:1;fill-rule:nonzero;stroke:none"
             id="path4187"
             inkscape:connector-curvature="0" /></g><g
           id="g4189"
           transform="translate(374.0449,390.5439)"><path
             d="m 0,0 c 2.2,0 4,-1.8 4,-4 l 0,-16 c 0,-2.2 -1.8,-4 -4,-4 l -40,0 c -2.2,0 -4,-1.8 -4,-4 l 0,-64 c 0,-2.2 1.8,-4 4,-4 l 40,0 c 2.2,0 4,1.8 4,4 l 0,16 c 0,2.2 -1.8,4 -4,4 l -16,0 c -2.2,0 -4,1.8 -4,4 l 0,16 c 0,2.2 1.8,4 4,4 l 40,0 c 2.2,0 4,-1.8 4,-4 l 0,-40 c 0,-2.2 -1.272,-5.272 -2.828,-6.828 L 6.828,-117.172 C 5.272,-118.728 2.2,-120 0,-120 l -40,0 c -2.2,0 -5.272,1.272 -6.828,2.828 l -18.344,18.344 C -66.728,-97.272 -68,-94.2 -68,-92 l 0,64 c 0,2.2 1.272,5.272 2.828,6.828 l 18.344,18.344 C -45.272,-1.272 -42.2,0 -40,0 L 0,0"
             style="fill:#ffffff;fill-opacity:1;fill-rule:nonzero;stroke:none"
             id="path4191"
             inkscape:connector-curvature="0" /></g><g
           id="g4193"
           transform="translate(292.0449,390.5439)"><path
             d="m 0,0 c 2.2,0 4,-1.8 4,-4 l 0,-64 c 0,-2.2 -1.8,-4 -4,-4 l -40,0 c -2.2,0 -5.272,1.272 -6.828,2.828 l -18.344,18.344 C -66.728,-49.272 -68,-46.2 -68,-44 l 0,40 c 0,2.2 1.8,4 4,4 l 16,0 c 2.2,0 4,-1.8 4,-4 l 0,-40 c 0,-2.2 1.8,-4 4,-4 l 16,0 c 2.2,0 4,1.8 4,4 l 0,40 c 0,2.2 1.8,4 4,4 L 0,0"
             style="fill:#ffffff;fill-opacity:1;fill-rule:nonzero;stroke:none"
             id="path4195"
             inkscape:connector-curvature="0" /></g></g></g></g></svg>