<?xml version="1.0" encoding="UTF-8" standalone="no"?>
<svg
   xmlns:dc="http://purl.org/dc/elements/1.1/"
   xmlns:cc="http://creativecommons.org/ns#"
   xmlns:rdf="http://www.w3.org/1999/02/22-rdf-syntax-ns#"
   xmlns:svg="http://www.w3.org/2000/svg"
   xmlns="http://www.w3.org/2000/svg"
   xmlns:sodipodi="http://sodipodi.sourceforge.net/DTD/sodipodi-0.dtd"
   xmlns:inkscape="http://www.inkscape.org/namespaces/inkscape"
   viewBox="0 -256 1792 1792"
   id="svg3001"
   version="1.1"
   inkscape:version="0.48.3.1 r9886"
   width="100%"
   height="100%"
   sodipodi:docname="lemon_font_awesome.svg">
  <metadata
     id="metadata3011">
    <rdf:RDF>
      <cc:Work
         rdf:about="">
        <dc:format>image/svg+xml</dc:format>
        <dc:type
           rdf:resource="http://purl.org/dc/dcmitype/StillImage" />
      </cc:Work>
    </rdf:RDF>
  </metadata>
  <defs
     id="defs3009" />
  <sodipodi:namedview
     pagecolor="#ffffff"
     bordercolor="#666666"
     borderopacity="1"
     objecttolerance="10"
     gridtolerance="10"
     guidetolerance="10"
     inkscape:pageopacity="0"
     inkscape:pageshadow="2"
     inkscape:window-width="640"
     inkscape:window-height="480"
     id="namedview3007"
     showgrid="false"
     inkscape:zoom="0.13169643"
     inkscape:cx="896"
     inkscape:cy="896"
     inkscape:window-x="0"
     inkscape:window-y="25"
     inkscape:window-maximized="0"
     inkscape:current-layer="svg3001" />
  <g
     transform="matrix(1,0,0,-1,121.49153,1270.2373)"
     id="g3003">
    <path
       d="m 1407,710 q 0,44 -7,113.5 -7,69.5 -18,96.5 -12,30 -17,44 -5,14 -9,36.5 -4,22.5 -4,48.5 0,23 5,68.5 5,45.5 5,67.5 0,37 -10,55 -4,1 -13,1 -19,0 -58,-4.5 -39,-4.5 -59,-4.5 -60,0 -176,24 -116,24 -175,24 -43,0 -94.5,-11.5 Q 725,1257 691.5,1245 658,1233 602,1211 465,1157 400,1108 304,1035 240.5,918.5 177,802 152.5,682.5 128,563 128,434 128,394 140.5,314 153,234 153,193 153,170 142,126.5 131,83 131,61 131,39 143,24.5 155,10 177,10 201,10 249.5,21 298,32 323,32 380,32 492.5,16.5 605,1 662,1 843,1 946,37 1075,82 1181.5,189.5 1288,297 1347.5,435 1407,573 1407,710 z m 128,2 Q 1535,547 1465,384.5 1395,222 1269,96.5 1143,-29 988,-84 864,-128 662,-128 605,-128 492,-113.5 379,-99 323,-99 299,-99 250.5,-113.5 202,-128 177,-128 104,-128 53.5,-72.5 3,-17 3,56 3,80 14,124 25,168 25,191 25,231 12.5,311.5 0,392 0,433 0,544 18,650.5 36,757 72.5,860 109,963 173,1054 q 64,91 150,156 78,59 232,120 194,78 316,78 60,0 175.5,-24 115.5,-24 173.5,-24 19,0 57,5 38,5 58,5 81,0 118,-50.5 37,-50.5 37,-134.5 0,-23 -5,-68 -5,-45 -5,-68 0,-10 1,-18.5 1,-8.5 3,-17 2,-8.5 4,-13.5 2,-5 6.5,-16 4.5,-11 6.5,-17 16,-40 25,-118.5 9,-78.5 9,-136.5 z"
       id="path3005"
       inkscape:connector-curvature="0"
       style="fill:currentColor" />
  </g>
</svg>
