<?xml version="1.0" encoding="UTF-8" standalone="no"?>
<svg
   xmlns:dc="http://purl.org/dc/elements/1.1/"
   xmlns:cc="http://creativecommons.org/ns#"
   xmlns:rdf="http://www.w3.org/1999/02/22-rdf-syntax-ns#"
   xmlns:svg="http://www.w3.org/2000/svg"
   xmlns="http://www.w3.org/2000/svg"
   xmlns:sodipodi="http://sodipodi.sourceforge.net/DTD/sodipodi-0.dtd"
   xmlns:inkscape="http://www.inkscape.org/namespaces/inkscape"
   viewBox="0 -256 1850 1850"
   id="svg3001"
   version="1.1"
   inkscape:version="0.48.3.1 r9886"
   width="100%"
   height="100%"
   sodipodi:docname="dashboard_font_awesome.svg">
  <metadata
     id="metadata3011">
    <rdf:RDF>
      <cc:Work
         rdf:about="">
        <dc:format>image/svg+xml</dc:format>
        <dc:type
           rdf:resource="http://purl.org/dc/dcmitype/StillImage" />
      </cc:Work>
    </rdf:RDF>
  </metadata>
  <defs
     id="defs3009" />
  <sodipodi:namedview
     pagecolor="#ffffff"
     bordercolor="#666666"
     borderopacity="1"
     objecttolerance="10"
     gridtolerance="10"
     guidetolerance="10"
     inkscape:pageopacity="0"
     inkscape:pageshadow="2"
     inkscape:window-width="640"
     inkscape:window-height="480"
     id="namedview3007"
     showgrid="false"
     inkscape:zoom="0.13169643"
     inkscape:cx="896"
     inkscape:cy="896"
     inkscape:window-x="0"
     inkscape:window-y="25"
     inkscape:window-maximized="0"
     inkscape:current-layer="svg3001" />
  <g
     transform="matrix(1,0,0,-1,37.966102,1221.9322)"
     id="g3003">
    <path
       d="m 384,384 q 0,53 -37.5,90.5 Q 309,512 256,512 203,512 165.5,474.5 128,437 128,384 128,331 165.5,293.5 203,256 256,256 q 53,0 90.5,37.5 Q 384,331 384,384 z m 192,448 q 0,53 -37.5,90.5 Q 501,960 448,960 395,960 357.5,922.5 320,885 320,832 320,779 357.5,741.5 395,704 448,704 q 53,0 90.5,37.5 Q 576,779 576,832 z m 428,-481 101,382 q 6,26 -7.5,48.5 -13.5,22.5 -38.5,29.5 -25,7 -48,-6.5 Q 988,791 981,765 L 880,383 Q 820,378 773,339.5 726,301 710,241 690,164 730,95 770,26 847,6 q 77,-20 146,20 69,40 89,117 16,60 -6,117 -22,57 -72,91 z m 660,33 q 0,53 -37.5,90.5 Q 1589,512 1536,512 1483,512 1445.5,474.5 1408,437 1408,384 q 0,-53 37.5,-90.5 37.5,-37.5 90.5,-37.5 53,0 90.5,37.5 37.5,37.5 37.5,90.5 z m -640,640 q 0,53 -37.5,90.5 Q 949,1152 896,1152 843,1152 805.5,1114.5 768,1077 768,1024 768,971 805.5,933.5 843,896 896,896 q 53,0 90.5,37.5 37.5,37.5 37.5,90.5 z m 448,-192 q 0,53 -37.5,90.5 Q 1397,960 1344,960 1291,960 1253.5,922.5 1216,885 1216,832 q 0,-53 37.5,-90.5 37.5,-37.5 90.5,-37.5 53,0 90.5,37.5 37.5,37.5 37.5,90.5 z m 320,-448 q 0,-261 -141,-483 -19,-29 -54,-29 H 195 q -35,0 -54,29 Q 0,122 0,384 q 0,182 71,348 71,166 191,286 120,120 286,191 166,71 348,71 182,0 348,-71 166,-71 286,-191 120,-120 191,-286 71,-166 71,-348 z"
       id="path3005"
       inkscape:connector-curvature="0"
       style="fill:currentColor" />
  </g>
</svg>
