<?xml version="1.0" encoding="UTF-8" standalone="no"?>
<svg
   xmlns:dc="http://purl.org/dc/elements/1.1/"
   xmlns:cc="http://creativecommons.org/ns#"
   xmlns:rdf="http://www.w3.org/1999/02/22-rdf-syntax-ns#"
   xmlns:svg="http://www.w3.org/2000/svg"
   xmlns="http://www.w3.org/2000/svg"
   xmlns:xlink="http://www.w3.org/1999/xlink"
   xmlns:sodipodi="http://sodipodi.sourceforge.net/DTD/sodipodi-0.dtd"
   xmlns:inkscape="http://www.inkscape.org/namespaces/inkscape"
   version="1.1"
   id="svg2"
   height="60"
   width="64"
   inkscape:version="0.91 r13725"
   sodipodi:docname="logotext.svg">
  <sodipodi:namedview
     pagecolor="#ffffff"
     bordercolor="#666666"
     borderopacity="1"
     objecttolerance="10"
     gridtolerance="10"
     guidetolerance="10"
     inkscape:pageopacity="0"
     inkscape:pageshadow="2"
     inkscape:window-width="1109"
     inkscape:window-height="682"
     id="namedview23"
     showgrid="false"
     inkscape:zoom="3.6874996"
     inkscape:cx="62.840795"
     inkscape:cy="32.013014"
     inkscape:window-x="148"
     inkscape:window-y="0"
     inkscape:window-maximized="0"
     inkscape:current-layer="layer1"
     fit-margin-top="0"
     fit-margin-left="0"
     fit-margin-right="0"
     fit-margin-bottom="0" />
  <title
     id="title3416">Rubénerd</title>
  <defs
     id="defs4">
    <linearGradient
       id="linearGradient4150">
      <stop
         style="stop-color:#0066ff;stop-opacity:0.40000001"
         offset="0"
         id="stop4152" />
      <stop
         style="stop-color:#0066ff;stop-opacity:1"
         offset="1"
         id="stop4154" />
    </linearGradient>
    <linearGradient
       id="linearGradient3765">
      <stop
         id="stop3767"
         offset="0"
         style="stop-color:#0066ff;stop-opacity:0;" />
      <stop
         id="stop3769"
         offset="1"
         style="stop-color:#ffffff;stop-opacity:1;" />
    </linearGradient>
    <linearGradient
       id="linearGradient3755">
      <stop
         id="stop3757"
         offset="0"
         style="stop-color:#0066ff;stop-opacity:1;" />
      <stop
         id="stop3759"
         offset="1"
         style="stop-color:#0066ff;stop-opacity:0;" />
    </linearGradient>
    <radialGradient
       r="250"
       fy="352.75095"
       fx="117.16623"
       cy="352.75095"
       cx="117.16623"
       gradientTransform="matrix(0.19050001,0.0015,-0.00147633,0.18749419,34.319182,933.48139)"
       gradientUnits="userSpaceOnUse"
       id="radialGradient3031"
       xlink:href="#linearGradient4150" />
  </defs>
  <metadata
     id="metadata7">
    <rdf:RDF>
      <cc:Work
         rdf:about="">
        <dc:format>image/svg+xml</dc:format>
        <dc:type
           rdf:resource="http://purl.org/dc/dcmitype/StillImage" />
        <dc:title>Rubénerd</dc:title>
        <dc:creator>
          <cc:Agent>
            <dc:title>Ruben Schade</dc:title>
          </cc:Agent>
        </dc:creator>
        <dc:rights>
          <cc:Agent>
            <dc:title>© 1997-2016. All Rights Reserved</dc:title>
          </cc:Agent>
        </dc:rights>
        <dc:publisher>
          <cc:Agent>
            <dc:title />
          </cc:Agent>
        </dc:publisher>
        <dc:source>https://rubenerd.com/logo.svg</dc:source>
        <dc:date />
      </cc:Work>
    </rdf:RDF>
  </metadata>
  <g
     transform="translate(-38.069,-992.3752)"
     id="layer1">
    <ellipse
       id="path2985"
       style="fill:url(#radialGradient3031);fill-opacity:1;stroke:none"
       cx="70"
       cy="1016.3752"
       rx="24"
       ry="24.000004" />
    <path
       d="m 71.253107,1032.005 -6.089422,-10.8864 -10.434345,6.5614 4.714678,-11.5485 -11.635622,-4.067 11.968529,-3.5143 -4.075035,-11.63274 10.20983,7.16624 6.554137,-10.4389 0.762931,12.4504 12.247905,-1.3843 -9.25848,8.3593 8.718757,8.7126 -12.308063,-2.0266 z"
       id="path3763"
       style="fill:#ffffff;fill-opacity:1;stroke:none"
       inkscape:connector-curvature="0" />
    <flowRoot
       transform="translate(0,-16.000052)"
       style="font-style:normal;font-weight:normal;font-size:40px;line-height:125%;font-family:Sans;letter-spacing:0px;word-spacing:0px;fill:#000000;fill-opacity:1;stroke:none"
       id="flowRoot3773"
       xml:space="preserve"><flowRegion
         id="flowRegion3775"><rect
           y="500"
           x="25.714285"
           height="191.42857"
           width="662.85712"
           id="rect3777" /></flowRegion><flowPara
         id="flowPara3779" /></flowRoot>    <g
       style="font-style:normal;font-weight:normal;font-size:16.125px;line-height:125%;font-family:sans-serif;letter-spacing:0px;word-spacing:0px;fill:#000000;fill-opacity:1;stroke:none;stroke-width:1px;stroke-linecap:butt;stroke-linejoin:miter;stroke-opacity:1"
       id="text4170">
      <path
         d="m 40.581,1045.9112 0,-3.216 2.752,0 q 0.864,0 1.296,0.384 0.432,0.368 0.432,1.2 0,0.864 -0.432,1.248 -0.432,0.384 -1.296,0.384 l -2.752,0 z m -2.512,-5.168 0,11.424 2.512,0 0,-4.464 2.512,0 q 0.944,0 1.36,0.416 0.416,0.416 0.544,1.312 0.096,0.688 0.144,1.44 0.048,0.752 0.256,1.296 l 2.512,0 q -0.176,-0.24 -0.272,-0.576 -0.08,-0.352 -0.128,-0.736 -0.032,-0.384 -0.048,-0.752 -0.016,-0.368 -0.032,-0.64 -0.032,-0.432 -0.128,-0.864 -0.08,-0.432 -0.272,-0.784 -0.192,-0.368 -0.496,-0.624 -0.304,-0.272 -0.768,-0.4 l 0,-0.032 q 0.96,-0.384 1.376,-1.12 0.432,-0.736 0.432,-1.744 0,-0.656 -0.24,-1.216 -0.224,-0.576 -0.672,-1.008 -0.432,-0.432 -1.056,-0.672 -0.608,-0.256 -1.376,-0.256 l -6.16,0 z"
         style="font-style:normal;font-variant:normal;font-weight:bold;font-stretch:normal;font-size:16px;font-family:'Helvetica Neue';-inkscape-font-specification:'Helvetica Neue';letter-spacing:-1.19000006px;fill:#0066ff;fill-opacity:1"
         id="path4175"
         inkscape:connector-curvature="0" />
      <path
         d="m 55.93025,1052.1672 0,-8.272 -2.272,0 0,4.336 q 0,1.264 -0.416,1.824 -0.416,0.544 -1.344,0.544 -0.816,0 -1.136,-0.496 -0.32,-0.512 -0.32,-1.536 l 0,-4.672 -2.272,0 0,5.088 q 0,0.768 0.128,1.408 0.144,0.624 0.48,1.072 0.336,0.432 0.912,0.672 0.592,0.24 1.504,0.24 0.72,0 1.408,-0.32 0.688,-0.32 1.12,-1.04 l 0.048,0 0,1.152 2.16,0 z"
         style="font-style:normal;font-variant:normal;font-weight:bold;font-stretch:normal;font-size:16px;font-family:'Helvetica Neue';-inkscape-font-specification:'Helvetica Neue';letter-spacing:-1.19000006px;fill:#0066ff;fill-opacity:1"
         id="path4177"
         inkscape:connector-curvature="0" />
      <path
         d="m 62.544249,1048.0392 q 0,0.512 -0.112,0.992 -0.112,0.48 -0.352,0.848 -0.24,0.368 -0.608,0.592 -0.352,0.208 -0.864,0.208 -0.496,0 -0.864,-0.208 -0.368,-0.224 -0.608,-0.592 -0.24,-0.368 -0.352,-0.848 -0.112,-0.48 -0.112,-0.992 0,-0.528 0.112,-1.008 0.112,-0.48 0.352,-0.848 0.24,-0.368 0.608,-0.576 0.368,-0.224 0.864,-0.224 0.512,0 0.864,0.224 0.368,0.208 0.608,0.576 0.24,0.368 0.352,0.848 0.112,0.48 0.112,1.008 z m -6.064,-7.296 0,11.424 2.16,0 0,-1.056 0.032,0 q 0.368,0.688 1.088,0.976 0.72,0.288 1.632,0.288 0.624,0 1.232,-0.256 0.608,-0.256 1.088,-0.784 0.496,-0.528 0.8,-1.344 0.304,-0.832 0.304,-1.968 0,-1.136 -0.304,-1.952 -0.304,-0.832 -0.8,-1.36 -0.48,-0.528 -1.088,-0.784 -0.608,-0.256 -1.232,-0.256 -0.768,0 -1.488,0.304 -0.704,0.288 -1.12,0.928 l -0.032,0 0,-4.16 -2.272,0 z"
         style="font-style:normal;font-variant:normal;font-weight:bold;font-stretch:normal;font-size:16px;font-family:'Helvetica Neue';-inkscape-font-specification:'Helvetica Neue';letter-spacing:-1.19000006px;fill:#0066ff;fill-opacity:1"
         id="path4179"
         inkscape:connector-curvature="0" />
      <path
         d="m 70.6395,1047.1432 -3.696,0 q 0.016,-0.24 0.096,-0.544 0.096,-0.304 0.304,-0.576 0.224,-0.272 0.576,-0.448 0.368,-0.192 0.912,-0.192 0.832,0 1.232,0.448 0.416,0.448 0.576,1.312 z m -3.696,1.44 5.968,0 q 0.064,-0.96 -0.16,-1.84 -0.224,-0.88 -0.736,-1.568 -0.496,-0.688 -1.28,-1.088 -0.784,-0.416 -1.84,-0.416 -0.944,0 -1.728,0.336 -0.768,0.336 -1.328,0.928 -0.56,0.576 -0.864,1.376 -0.304,0.8 -0.304,1.728 0,0.96 0.288,1.76 0.304,0.8 0.848,1.376 0.544,0.576 1.328,0.896 0.784,0.304 1.76,0.304 1.408,0 2.4,-0.64 0.992,-0.64 1.472,-2.128 l -2,0 q -0.112,0.384 -0.608,0.736 -0.496,0.336 -1.184,0.336 -0.96,0 -1.472,-0.496 -0.512,-0.496 -0.56,-1.6 z m 4.848,-8.976 -2.608,2.832 -1.584,0 1.696,-2.832 2.496,0 z"
         style="font-style:normal;font-variant:normal;font-weight:bold;font-stretch:normal;font-size:16px;font-family:'Helvetica Neue';-inkscape-font-specification:'Helvetica Neue';letter-spacing:-1.19000006px;fill:#0066ff;fill-opacity:1"
         id="path4181"
         inkscape:connector-curvature="0" />
      <path
         d="m 73.068998,1043.8952 0,8.272 2.272,0 0,-4.336 q 0,-1.264 0.416,-1.808 0.416,-0.56 1.344,-0.56 0.816,0 1.136,0.512 0.32,0.496 0.32,1.52 l 0,4.672 2.272,0 0,-5.088 q 0,-0.768 -0.144,-1.392 -0.128,-0.64 -0.464,-1.072 -0.336,-0.448 -0.928,-0.688 -0.576,-0.256 -1.488,-0.256 -0.72,0 -1.408,0.336 -0.688,0.32 -1.12,1.04 l -0.048,0 0,-1.152 -2.16,0 z"
         style="font-style:normal;font-variant:normal;font-weight:bold;font-stretch:normal;font-size:16px;font-family:'Helvetica Neue';-inkscape-font-specification:'Helvetica Neue';letter-spacing:-1.19000006px;fill:#0066ff;fill-opacity:1"
         id="path4183"
         inkscape:connector-curvature="0" />
      <path
         d="m 86.946999,1047.1432 -3.696,0 q 0.016,-0.24 0.096,-0.544 0.096,-0.304 0.304,-0.576 0.224,-0.272 0.576,-0.448 0.368,-0.192 0.912,-0.192 0.832,0 1.232,0.448 0.416,0.448 0.576,1.312 z m -3.696,1.44 5.968,0 q 0.064,-0.96 -0.16,-1.84 -0.224,-0.88 -0.736,-1.568 -0.496,-0.688 -1.28,-1.088 -0.784,-0.416 -1.84,-0.416 -0.944,0 -1.728,0.336 -0.768,0.336 -1.328,0.928 -0.56,0.576 -0.864,1.376 -0.304,0.8 -0.304,1.728 0,0.96 0.288,1.76 0.304,0.8 0.848,1.376 0.544,0.576 1.328,0.896 0.784,0.304 1.76,0.304 1.408,0 2.4,-0.64 0.992,-0.64 1.472,-2.128 l -2,0 q -0.112,0.384 -0.608,0.736 -0.496,0.336 -1.184,0.336 -0.96,0 -1.472,-0.496 -0.512,-0.496 -0.56,-1.6 z"
         style="font-style:normal;font-variant:normal;font-weight:bold;font-stretch:normal;font-size:16px;font-family:'Helvetica Neue';-inkscape-font-specification:'Helvetica Neue';letter-spacing:-1.19000006px;fill:#0066ff;fill-opacity:1"
         id="path4185"
         inkscape:connector-curvature="0" />
      <path
         d="m 89.376501,1043.8952 0,8.272 2.272,0 0,-3.728 q 0,-0.56 0.112,-1.04 0.112,-0.48 0.368,-0.832 0.272,-0.368 0.704,-0.576 0.432,-0.208 1.056,-0.208 0.208,0 0.432,0.032 0.224,0.016 0.384,0.048 l 0,-2.112 q -0.272,-0.08 -0.496,-0.08 -0.432,0 -0.832,0.128 -0.4,0.128 -0.752,0.368 -0.352,0.224 -0.624,0.56 -0.272,0.32 -0.432,0.704 l -0.032,0 0,-1.536 -2.16,0 z"
         style="font-style:normal;font-variant:normal;font-weight:bold;font-stretch:normal;font-size:16px;font-family:'Helvetica Neue';-inkscape-font-specification:'Helvetica Neue';letter-spacing:-1.19000006px;fill:#0066ff;fill-opacity:1"
         id="path4187"
         inkscape:connector-curvature="0" />
      <path
         d="m 100.04287,1048.0072 q 0,0.512 -0.096,0.992 -0.096,0.48 -0.32,0.864 -0.224,0.368 -0.608,0.592 -0.368,0.224 -0.928,0.224 -0.528,0 -0.912,-0.224 -0.368,-0.24 -0.624,-0.608 -0.24,-0.384 -0.352,-0.864 -0.112,-0.48 -0.112,-0.96 0,-0.512 0.096,-0.976 0.112,-0.48 0.336,-0.848 0.24,-0.368 0.624,-0.592 0.384,-0.224 0.944,-0.224 0.56,0 0.928,0.224 0.368,0.224 0.592,0.592 0.24,0.352 0.336,0.832 0.096,0.464 0.096,0.976 z m 0.032,3.104 0,1.056 2.16,0 0,-11.424 -2.271997,0 0,4.16 -0.032,0 q -0.384,-0.608 -1.056,-0.912 -0.656,-0.32 -1.392,-0.32 -0.912,0 -1.6,0.368 -0.688,0.352 -1.152,0.944 -0.448,0.592 -0.688,1.376 -0.224,0.768 -0.224,1.6 0,0.864 0.224,1.664 0.24,0.8 0.688,1.424 0.464,0.608 1.168,0.976 0.704,0.352 1.632,0.352 0.816,0 1.456,-0.288 0.656,-0.304 1.055997,-0.976 l 0.032,0 z"
         style="font-style:normal;font-variant:normal;font-weight:bold;font-stretch:normal;font-size:16px;font-family:'Helvetica Neue';-inkscape-font-specification:'Helvetica Neue';letter-spacing:-1.19000006px;fill:#0066ff;fill-opacity:1"
         id="path4189"
         inkscape:connector-curvature="0" />
    </g>
  </g>
</svg>
