<svg height="131" width="140" xmlns="http://www.w3.org/2000/svg" xmlns:xlink="http://www.w3.org/1999/xlink"><title>Rubénerd</title><radialGradient id="a" cx="117.16623" cy="352.75095" gradientTransform="matrix(.41564155 .00327277 -.00322112 .40908331 29.887477 792.9673)" gradientUnits="userSpaceOnUse" r="250"><stop offset="0" stop-color="#06f" stop-opacity=".4"/><stop offset="1" stop-color="#06f"/></radialGradient><g transform="translate(-38.069001 -921.37519)"><ellipse cx="107.7375" cy="973.82874" fill="url(#a)" rx="52.364288" ry="52.364296"/><path d="m110.47159 1007.9306-13.28618-23.75246-22.766126 14.31595 10.286698-25.19704-25.387127-8.87356 26.113478-7.66766-8.891095-25.38084 22.276269 15.63563 14.300113-22.77607 1.6646 27.16485 26.72303-3.02033-20.20057 18.2387 19.02298 19.00955-26.85429-4.42173z" fill="#fff"/><g fill="#06f" transform="matrix(2.1818453 0 0 2.1818453 -44.991668 -1243.7447)"><path d="m40.581 1045.9112v-3.216h2.752q.864 0 1.296.384.432.368.432 1.2 0 .864-.432 1.248-.432.384-1.296.384zm-2.512-5.168v11.424h2.512v-4.464h2.512q.944 0 1.36.416.416.416.544 1.312.096.688.144 1.44.048.752.256 1.296h2.512q-.176-.24-.272-.576-.08-.352-.128-.736-.032-.384-.048-.752-.016-.368-.032-.64-.032-.432-.128-.864-.08-.432-.272-.784-.192-.368-.496-.624-.304-.272-.768-.4v-.032q.96-.384 1.376-1.12.432-.736.432-1.744 0-.656-.24-1.216-.224-.576-.672-1.008-.432-.432-1.056-.672-.608-.256-1.376-.256z"/><path d="m55.93025 1052.1672v-8.272h-2.272v4.336q0 1.264-.416 1.824-.416.544-1.344.544-.816 0-1.136-.496-.32-.512-.32-1.536v-4.672h-2.272v5.088q0 .768.128 1.408.144.624.48 1.072.336.432.912.672.592.24 1.504.24.72 0 1.408-.32.688-.32 1.12-1.04h.048v1.152z"/><path d="m62.544249 1048.0392q0 .512-.112.992-.112.48-.352.848-.24.368-.608.592-.352.208-.864.208-.496 0-.864-.208-.368-.224-.608-.592-.24-.368-.352-.848-.112-.48-.112-.992 0-.528.112-1.008.112-.48.352-.848.24-.368.608-.576.368-.224.864-.224.512 0 .864.224.368.208.608.576.24.368.352.848.112.48.112 1.008zm-6.064-7.296v11.424h2.16v-1.056h.032q.368.688 1.088.976.72.288 1.632.288.624 0 1.232-.256.608-.256 1.088-.784.496-.528.8-1.344.304-.832.304-1.968 0-1.136-.304-1.952-.304-.832-.8-1.36-.48-.528-1.088-.784-.608-.256-1.232-.256-.768 0-1.488.304-.704.288-1.12.928h-.032v-4.16z"/><path d="m70.6395 1047.1432h-3.696q.016-.24.096-.544.096-.304.304-.576.224-.272.576-.448.368-.192.912-.192.832 0 1.232.448.416.448.576 1.312zm-3.696 1.44h5.968q.064-.96-.16-1.84-.224-.88-.736-1.568-.496-.688-1.28-1.088-.784-.416-1.84-.416-.944 0-1.728.336-.768.336-1.328.928-.56.576-.864 1.376-.304.8-.304 1.728 0 .96.288 1.76.304.8.848 1.376.544.576 1.328.896.784.304 1.76.304 1.408 0 2.4-.64.992-.64 1.472-2.128h-2q-.112.384-.608.736-.496.336-1.184.336-.96 0-1.472-.496-.512-.496-.56-1.6zm4.848-8.976-2.608 2.832h-1.584l1.696-2.832z"/><path d="m73.068998 1043.8952v8.272h2.272v-4.336q0-1.264.416-1.808.416-.56 1.344-.56.816 0 1.136.512.32.496.32 1.52v4.672h2.272v-5.088q0-.768-.144-1.392-.128-.64-.464-1.072-.336-.448-.928-.688-.576-.256-1.488-.256-.72 0-1.408.336-.688.32-1.12 1.04h-.048v-1.152z"/><path d="m86.946999 1047.1432h-3.696q.016-.24.096-.544.096-.304.304-.576.224-.272.576-.448.368-.192.912-.192.832 0 1.232.448.416.448.576 1.312zm-3.696 1.44h5.968q.064-.96-.16-1.84-.224-.88-.736-1.568-.496-.688-1.28-1.088-.784-.416-1.84-.416-.944 0-1.728.336-.768.336-1.328.928-.56.576-.864 1.376-.304.8-.304 1.728 0 .96.288 1.76.304.8.848 1.376.544.576 1.328.896.784.304 1.76.304 1.408 0 2.4-.64.992-.64 1.472-2.128h-2q-.112.384-.608.736-.496.336-1.184.336-.96 0-1.472-.496-.512-.496-.56-1.6z"/><path d="m89.376501 1043.8952v8.272h2.272v-3.728q0-.56.112-1.04.112-.48.368-.832.272-.368.704-.576.432-.208 1.056-.208.208 0 .432.032.224.016.384.048v-2.112q-.272-.08-.496-.08-.432 0-.832.128-.4.128-.752.368-.352.224-.624.56-.272.32-.432.704h-.032v-1.536z"/><path d="m100.04287 1048.0072q0 .512-.096.992-.096.48-.32.864-.224.368-.608.592-.368.224-.928.224-.528 0-.912-.224-.368-.24-.624-.608-.24-.384-.352-.864-.112-.48-.112-.96 0-.512.096-.976.112-.48.336-.848.24-.368.624-.592.384-.224.944-.224.56 0 .928.224.368.224.592.592.24.352.336.832.096.464.096.976zm.032 3.104v1.056h2.16v-11.424h-2.271997v4.16h-.032q-.384-.608-1.056-.912-.656-.32-1.392-.32-.912 0-1.6.368-.688.352-1.152.944-.448.592-.688 1.376-.224.768-.224 1.6 0 .864.224 1.664.24.8.688 1.424.464.608 1.168.976.704.352 1.632.352.816 0 1.456-.288.656-.304 1.055997-.976z"/></g></g></svg>