<?xml version="1.0" encoding="UTF-8" standalone="no"?>
<!-- Created with Inkscape (http://www.inkscape.org/) -->

<svg
   xmlns:dc="http://purl.org/dc/elements/1.1/"
   xmlns:cc="http://creativecommons.org/ns#"
   xmlns:rdf="http://www.w3.org/1999/02/22-rdf-syntax-ns#"
   xmlns:svg="http://www.w3.org/2000/svg"
   xmlns="http://www.w3.org/2000/svg"
   xmlns:xlink="http://www.w3.org/1999/xlink"
   xmlns:sodipodi="http://sodipodi.sourceforge.net/DTD/sodipodi-0.dtd"
   xmlns:inkscape="http://www.inkscape.org/namespaces/inkscape"
   width="640"
   height="640"
   id="svg2"
   version="1.1"
   inkscape:version="0.91 r13725"
   sodipodi:docname="show-logo.svg"
   inkscape:export-filename="/Users/ruben/Repos/rubenerd-com/metadata/template-new.png"
   inkscape:export-xdpi="90"
   inkscape:export-ydpi="90">
  <defs
     id="defs4">
    <linearGradient
       id="linearGradient4150">
      <stop
         id="stop4152"
         offset="0"
         style="stop-color:#0099ff;stop-opacity:1" />
      <stop
         id="stop4154"
         offset="1"
         style="stop-color:#001581;stop-opacity:1" />
    </linearGradient>
    <linearGradient
       id="linearGradient3765">
      <stop
         style="stop-color:#0066ff;stop-opacity:0;"
         offset="0"
         id="stop3767" />
      <stop
         style="stop-color:#ffffff;stop-opacity:1;"
         offset="1"
         id="stop3769" />
    </linearGradient>
    <linearGradient
       id="linearGradient3755">
      <stop
         style="stop-color:#0066ff;stop-opacity:1;"
         offset="0"
         id="stop3757" />
      <stop
         style="stop-color:#0066ff;stop-opacity:0;"
         offset="1"
         id="stop3759" />
    </linearGradient>
    <radialGradient
       inkscape:collect="always"
       xlink:href="#linearGradient4150"
       id="radialGradient5038"
       cx="-4.5590339"
       cy="415.15463"
       fx="-4.5590339"
       fy="415.15463"
       r="320"
       gradientTransform="matrix(0.65910617,0.00298843,-0.00314286,0.69316542,95.521776,493.99892)"
       gradientUnits="userSpaceOnUse" />
  </defs>
  <sodipodi:namedview
     id="base"
     pagecolor="#ffffff"
     bordercolor="#666666"
     borderopacity="1.0"
     inkscape:pageopacity="0"
     inkscape:pageshadow="2"
     inkscape:zoom="1"
     inkscape:cx="307.22864"
     inkscape:cy="447.99265"
     inkscape:document-units="px"
     inkscape:current-layer="layer1"
     showgrid="false"
     inkscape:window-width="1536"
     inkscape:window-height="773"
     inkscape:window-x="31"
     inkscape:window-y="0"
     inkscape:window-maximized="0" />
  <metadata
     id="metadata7">
    <rdf:RDF>
      <cc:Work
         rdf:about="">
        <dc:format>image/svg+xml</dc:format>
        <dc:type
           rdf:resource="http://purl.org/dc/dcmitype/StillImage" />
        <dc:title></dc:title>
      </cc:Work>
    </rdf:RDF>
  </metadata>
  <g
     inkscape:label="Layer 1"
     inkscape:groupmode="layer"
     id="layer1"
     transform="translate(0,-412.36218)">
    <rect
       style="opacity:1;fill:#001581;fill-opacity:1;stroke:none;stroke-width:1;stroke-miterlimit:4;stroke-dasharray:none;stroke-opacity:1"
       id="rect5040"
       width="640"
       height="64"
       x="1"
       y="988.36218" />
    <path
       style="opacity:1;fill:url(#radialGradient5038);fill-opacity:1;stroke:none;stroke-width:1;stroke-miterlimit:4;stroke-dasharray:none;stroke-opacity:1"
       d="m 162,752.36218 a 120,120 0 0 0 -120,120 120,120 0 0 0 27.236328,76 l -69.236328,0 0,84.00002 640,0 0,-84.00002 -385.22461,0 a 120,120 0 0 0 27.22461,-76 120,120 0 0 0 -120,-120 z"
       id="rect4884"
       inkscape:connector-curvature="0" />
    <path
       sodipodi:type="star"
       style="fill:#ffffff;fill-opacity:1;stroke:none"
       id="path3763"
       sodipodi:sides="7"
       sodipodi:cx="154.28571"
       sodipodi:cy="122.85714"
       sodipodi:r1="576.33606"
       sodipodi:r2="256.05563"
       sodipodi:arg1="1.0916289"
       sodipodi:arg2="1.5527075"
       inkscape:flatsided="false"
       inkscape:rounded="0"
       inkscape:randomized="0"
       d="M 419.99999,634.2857 158.9172,378.87088 -79.895101,649.47142 -42.98621,286.10015 -403.44727,268.10585 -96.339843,70.404095 -307.01513,-222.63497 39.032674,-105.79374 136.78595,-453.21318 261.19307,-109.8128 593.7647,-249.99869 402.85005,61.37335 719.8068,233.98384 357.333,278.85805 Z"
       transform="matrix(0.16380709,0.04823564,-0.04823565,0.16380707,130.06176,826.40085)"
       inkscape:transform-center-x="8.572425"
       inkscape:transform-center-y="1.4137554" />
    <flowRoot
       xml:space="preserve"
       id="flowRoot3773"
       style="font-style:normal;font-weight:normal;font-size:40px;line-height:125%;font-family:Sans;letter-spacing:0px;word-spacing:0px;fill:#000000;fill-opacity:1;stroke:none"
       transform="translate(0,-4.0000064)"><flowRegion
         id="flowRegion3775"><rect
           id="rect3777"
           width="662.85712"
           height="191.42857"
           x="25.714285"
           y="500" /></flowRegion><flowPara
         id="flowPara3779" /></flowRoot>    <text
       xml:space="preserve"
       style="font-style:normal;font-weight:normal;font-size:40px;line-height:125%;font-family:Sans;letter-spacing:0px;word-spacing:0px;fill:#ffffff;fill-opacity:1;stroke:none;stroke-width:1px;stroke-linecap:butt;stroke-linejoin:miter;stroke-opacity:1"
       x="187"
       y="1021.3622"
       id="text4880"
       sodipodi:linespacing="125%"><tspan
         sodipodi:role="line"
         id="tspan4882"
         x="187"
         y="1021.3622"
         style="font-style:normal;font-variant:normal;font-weight:bold;font-stretch:normal;font-size:60px;font-family:'Helvetica Neue';-inkscape-font-specification:'Helvetica Neue Bold';letter-spacing:-3px;fill:#ffffff"
         dx="0">Rubénerd Show</tspan></text>
    <g
       id="g4171"
       style="fill:#ffffff">
      <rect
         y="487.36218"
         x="450"
         height="52"
         width="154"
         id="rect4161"
         style="opacity:1;fill:#ffffff;fill-opacity:1;stroke:none;stroke-width:1;stroke-miterlimit:4;stroke-dasharray:none;stroke-opacity:1" />
      <rect
         style="opacity:1;fill:#ffffff;fill-opacity:1;stroke:none;stroke-width:1;stroke-miterlimit:4;stroke-dasharray:none;stroke-opacity:1"
         id="rect4163"
         width="115"
         height="52"
         x="470"
         y="543.36218" />
      <rect
         y="463.36218"
         x="510"
         height="52"
         width="95"
         id="rect4165"
         style="opacity:1;fill:#ffffff;fill-opacity:1;stroke:none;stroke-width:1;stroke-miterlimit:4;stroke-dasharray:none;stroke-opacity:1" />
      <rect
         style="opacity:1;fill:#ffffff;fill-opacity:1;stroke:none;stroke-width:1;stroke-miterlimit:4;stroke-dasharray:none;stroke-opacity:1"
         id="rect4167"
         width="33"
         height="52"
         x="571"
         y="450.36218" />
      <rect
         y="578.36218"
         x="523"
         height="52"
         width="70"
         id="rect4169"
         style="opacity:1;fill:#ffffff;fill-opacity:1;stroke:none;stroke-width:1;stroke-miterlimit:4;stroke-dasharray:none;stroke-opacity:1" />
    </g>
    <path
       style="fill:#001581;fill-opacity:1"
       d="m 542.61916,644.64253 c -6.03157,-1.01408 -9.47264,-3.31827 -18.84344,-12.61771 -7.18441,-7.12974 -9.10242,-9.37514 -10.65539,-12.47414 -1.04163,-2.07865 -2.04889,-4.60564 -2.23836,-5.61559 l -0.34449,-1.83627 -12.55721,-0.26709 c -17.82845,-0.3792 -18.45286,-0.63672 -30.46159,-12.56325 -13.39632,-13.3046 -13.51131,-13.56517 -13.93267,-31.57 l -0.30336,-12.9623 -2.33514,-0.68842 c -5.5434,-1.63425 -9.73007,-5.30082 -12.29367,-10.76647 -1.43839,-3.06668 -1.44176,-3.10805 -1.61657,-19.84868 -0.19142,-18.32935 0.0353,-20.50846 2.72664,-26.20665 1.38741,-2.93749 3.21536,-5.093 10.37221,-12.23089 12.64402,-12.61051 14.09101,-13.20712 32.05658,-13.21719 l 11.73155,-0.007 0.38873,-1.80098 c 0.90463,-4.19115 4.65969,-9.30985 8.70134,-11.86124 4.07328,-2.57135 7.20439,-2.96213 23.73333,-2.96213 8.4282,0 16.6672,0.24682 18.3089,0.54849 1.64169,0.30168 4.60577,1.39126 6.58684,2.42131 l 3.60194,1.87282 8.86632,-8.69191 c 9.57268,-9.38438 11.96086,-10.97378 18.37826,-12.2313 4.04203,-0.79205 18.2543,-0.45012 21.34375,0.5135 5.66824,1.76797 11.40976,8.23307 12.66001,14.25552 0.39992,1.92639 0.57193,6.39061 0.44354,11.5111 -0.19328,7.70851 -0.32841,8.62007 -1.72352,11.62607 l -1.51379,3.26173 1.52776,3.11093 1.52776,3.11093 0.17991,16.62435 c 0.20282,18.74251 -0.0894,21.32478 -3.05435,26.9871 -1.56429,2.98745 -3.77445,5.50821 -11.31046,12.89993 l -9.36626,9.18694 0,4.9272 0,4.92721 1.80097,0.38938 c 5.30746,1.1475 10.6495,5.51769 13.07895,10.69959 l 1.46736,3.12979 0.16026,17.85413 c 0.17869,19.9066 -0.0434,21.72792 -3.30537,27.11107 -1.02491,1.69136 -5.56063,6.71042 -10.22364,11.31311 -9.16502,9.04641 -12.3612,11.11204 -18.83425,12.17207 -3.86702,0.63328 -30.91604,0.60562 -34.72938,-0.0355 z m 33.80296,-16.89355 c 2.2166,-0.92614 14.73457,-12.92624 15.99772,-15.33587 0.62202,-1.18657 0.78442,-4.70043 0.78442,-16.97211 0,-13.71111 -0.10436,-15.56244 -0.91522,-16.23626 -0.71156,-0.59128 -4.10252,-0.7972 -15.23794,-0.9253 l -14.32272,-0.16477 -1.43356,1.43355 c -1.40035,1.40036 -1.42925,1.58005 -1.24787,7.75805 0.12403,4.22451 0.42437,6.56318 0.90454,7.04339 0.48725,0.48729 2.89744,0.77921 7.48096,0.9061 3.71915,0.10296 7.07381,0.4452 7.45478,0.76053 0.48564,0.40197 0.69268,2.61406 0.69268,7.40088 0,6.42719 -0.0722,6.87812 -1.23159,7.69018 -1.03597,0.72562 -3.46045,0.86263 -15.26417,0.86263 l -14.03259,0 -1.36017,-1.36017 -1.36018,-1.36017 0,-22.34476 c 0,-19.32689 0.11651,-22.5111 0.86264,-23.57635 0.85487,-1.22051 0.99611,-1.23159 15.68722,-1.23159 11.91906,0 15.0354,-0.15397 15.90025,-0.78556 0.93072,-0.67969 1.10102,-1.61599 1.2638,-6.94837 0.15158,-4.9653 0.0145,-6.42784 -0.70545,-7.52663 l -0.8936,-1.36379 -15.64182,0.004 c -13.95294,0.003 -15.79664,0.10797 -17.07568,0.96976 -2.79598,1.88386 -14.46023,14.09478 -15.23496,15.94898 -1.20968,2.89517 -1.1514,45.95907 0.0662,48.90013 1.12118,2.70819 13.15497,14.88392 16.04849,16.23775 1.98363,0.92814 3.71811,1.03842 16.50362,1.04928 11.57267,0.01 14.67141,-0.1484 16.31022,-0.83316 z m -57.59659,-33.26598 1.23159,-0.86265 0,-23.00202 c 0,-14.79616 -0.20464,-23.38441 -0.57364,-24.07388 -0.52115,-0.97378 -1.22092,-1.07186 -7.6472,-1.07186 -4.7628,0 -7.29079,0.21723 -7.73853,0.66497 -0.48358,0.48357 -0.66498,4.6506 -0.66498,15.27542 0,9.01163 -0.21982,15.02118 -0.57364,15.6823 -0.52115,0.97378 -1.22092,1.07186 -7.6472,1.07186 -4.7628,0 -7.29079,-0.21723 -7.73853,-0.66497 -0.48449,-0.48449 -0.66498,-4.74102 -0.66498,-15.68231 0,-10.94128 -0.18049,-15.19782 -0.66497,-15.6823 -0.44684,-0.44684 -2.95544,-0.66497 -7.6472,-0.66497 -4.69176,0 -7.20037,0.21813 -7.6472,0.66497 -1.04788,1.04788 -0.93192,30.47257 0.12797,32.47271 1.30969,2.47154 14.88894,15.61402 16.68803,16.15126 0.90037,0.26886 8.00269,0.51028 15.78296,0.53648 11.95988,0.0403 14.33625,-0.0857 15.37752,-0.81501 z m -30.57635,-57.80752 c 3.36839,-2.48315 13.95088,-13.52342 14.60052,-15.2321 0.35497,-0.93364 0.58307,-7.30154 0.58307,-16.27728 0,-12.9415 -0.1121,-14.86754 -0.9171,-15.75706 -0.84558,-0.93436 -2.08804,-1.01323 -15.93167,-1.01132 -14.23967,0.002 -15.11234,0.0617 -16.90918,1.1571 -2.22163,1.35438 -13.54416,12.76909 -15.06546,15.18811 -0.95799,1.52329 -1.04567,2.92296 -1.04756,16.7233 -0.002,12.9547 0.1197,15.18265 0.86872,15.93167 0.74984,0.74984 3.00906,0.8708 16.26414,0.8708 l 15.39333,0 2.16119,-1.59322 z m -17.19431,-15.90193 c -0.69302,-0.69302 -0.8708,-2.20278 -0.8708,-7.39507 0,-8.50605 -0.14845,-8.35848 8.40846,-8.35848 8.34842,0 8.21589,-0.13637 8.21589,8.45476 0,8.39198 0.22627,8.16959 -8.31217,8.16959 -5.23439,0 -6.74766,-0.17708 -7.44138,-0.8708 z m 54.98702,16.83018 c 0.49588,-0.49588 0.66497,-6.52383 0.66497,-23.70493 0,-19.9561 0.11546,-23.20481 0.86264,-24.27156 0.80646,-1.15138 1.278,-1.23159 7.24032,-1.23159 3.50772,0 6.86001,0.25814 7.44953,0.57364 1.03351,0.55312 1.07186,1.40355 1.07186,23.76685 0,21.26577 0.0806,23.29214 0.96976,24.38381 0.91215,1.1199 1.38029,1.18115 7.88121,1.03115 6.74484,-0.15563 6.92833,-0.19287 7.61133,-1.54483 0.92609,-1.83318 1.01571,-43.49661 0.10071,-46.82526 -0.47182,-1.71645 -2.19029,-3.82107 -7.6164,-9.32787 -3.8539,-3.91121 -7.68047,-7.46467 -8.50348,-7.89657 -1.18577,-0.62227 -4.65877,-0.78527 -16.73147,-0.78527 -15.11531,0 -15.24186,0.01 -16.09772,1.2316 -0.75562,1.0788 -0.86264,5.05067 -0.86264,32.0171 0,26.96643 0.10702,30.9383 0.86264,32.01711 0.81156,1.15865 1.26442,1.23159 7.6472,1.23159 4.53802,0 7.00475,-0.22019 7.44954,-0.66497 z m 58.01587,-0.20191 c 2.28301,-1.08336 15.0252,-14.00655 15.78763,-16.01189 0.32972,-0.86724 0.56276,-7.58541 0.56276,-16.22383 0,-12.9415 -0.11211,-14.86754 -0.91711,-15.75706 -0.78954,-0.87244 -1.82452,-1.01339 -7.44137,-1.01339 -8.48552,0 -8.26587,0.21709 -8.26587,-8.16959 0,-8.60986 -0.15334,-8.45476 8.35848,-8.45476 8.50207,0 8.26587,0.23753 8.26587,-8.31217 0,-5.23439 -0.17709,-6.74767 -0.8708,-7.44138 -1.23666,-1.23666 -13.3991,-1.25118 -15.99552,-0.0191 -2.31894,1.10042 -15.02785,13.94454 -15.79547,15.96354 -0.36025,0.94752 -0.58691,7.29277 -0.58691,16.42996 0,12.7941 0.12238,15.00864 0.8708,15.75705 0.69154,0.69157 2.19402,0.87082 7.29878,0.87082 8.59114,0 8.45477,-0.13252 8.45477,8.21589 0,8.55691 0.14756,8.40846 -8.35848,8.40846 -8.47857,0 -8.26587,-0.20871 -8.26587,8.11112 0,3.50323 0.25813,6.85185 0.57364,7.44137 0.52041,0.9724 1.21966,1.07186 7.53574,1.07186 5.16791,0 7.4329,-0.2234 8.78893,-0.86688 z"
       id="path5464"
       inkscape:connector-curvature="0" />
  </g>
</svg>
