<?xml version="1.0" encoding="UTF-8" standalone="no"?>
<!-- Created with Inkscape (http://www.inkscape.org/) -->

<svg
   xmlns:dc="http://purl.org/dc/elements/1.1/"
   xmlns:cc="http://creativecommons.org/ns#"
   xmlns:rdf="http://www.w3.org/1999/02/22-rdf-syntax-ns#"
   xmlns:svg="http://www.w3.org/2000/svg"
   xmlns="http://www.w3.org/2000/svg"
   xmlns:sodipodi="http://sodipodi.sourceforge.net/DTD/sodipodi-0.dtd"
   xmlns:inkscape="http://www.inkscape.org/namespaces/inkscape"
   id="svg3152"
   version="1.1"
   inkscape:version="0.48.5 r10040"
   width="1700"
   height="360"
   sodipodi:docname="sydney_crop.svg"
   inkscape:export-filename="/Users/ruben/Repositories/rubenerd-hugo/static/sydney.png"
   inkscape:export-xdpi="25"
   inkscape:export-ydpi="25">
  <metadata
     id="metadata3158">
    <rdf:RDF>
      <cc:Work
         rdf:about="">
        <dc:format>image/svg+xml</dc:format>
        <dc:type
           rdf:resource="http://purl.org/dc/dcmitype/StillImage" />
        <dc:title></dc:title>
      </cc:Work>
    </rdf:RDF>
  </metadata>
  <defs
     id="defs3156" />
  <sodipodi:namedview
     pagecolor="#0099ff"
     bordercolor="#666666"
     borderopacity="1"
     objecttolerance="10"
     gridtolerance="10"
     guidetolerance="10"
     inkscape:pageopacity="1"
     inkscape:pageshadow="2"
     inkscape:window-width="1029"
     inkscape:window-height="674"
     id="namedview3154"
     showgrid="false"
     inkscape:zoom="1"
     inkscape:cx="248.21061"
     inkscape:cy="191.5"
     inkscape:window-x="175"
     inkscape:window-y="71"
     inkscape:window-maximized="0"
     inkscape:current-layer="svg3152"
     fit-margin-top="0"
     fit-margin-left="0"
     fit-margin-right="0"
     fit-margin-bottom="0" />
  <path
     style="fill:#000066;fill-opacity:1"
     d="M 255.8125,32.5 255.53125,46.78125 255.25,61.0625 252.78125,62 l -2.46875,0.9375 -0.125,1.28125 c -0.0736,0.70111 -0.1861,6.912 -0.25,13.78125 L 249.8125,90.46875 243.625,91.5 c -3.3994,0.55575 -6.50906,1.34507 -6.90625,1.75 L 236,93.96875 l 1.8125,14.78125 1.78125,14.75 1.125,1.25 1.15625,1.21875 5.96875,1.15625 5.96875,1.15625 1,1.21875 1.03125,1.21875 -0.0312,44.90625 0,44.875 -11.5,0.5 -11.5,0.5 -0.5,10.5 -0.5,10.5 -5.5,-0.0312 c -3.025,-0.0132 -11.575,-0.23818 -19,-0.5 L 193.8125,241.5 192.96875,247 c -0.46874,3.025 -1.61437,9.775 -2.53125,15 l -1.65625,9.5 -4.25,0.3125 -4.25,0.3125 -0.4375,-1.3125 c -0.37983,-1.08628 -1.25171,-54.25125 -1.46875,-89.625 l -0.0625,-9.3125 -4.21875,0.3125 -4.21875,0.3125 -0.5625,-3 -0.53125,-3 -3.4375,0 -3.4375,0 -1.15625,-4 -1.125,-4 -12.90625,0 -12.90625,0 -0.3125,3.1875 -0.3125,3.15625 -1.1875,1 -1.21875,1.03125 -4.5,0.3125 -4.46875,0.3125 -0.5,3.5 -0.5,3.5 -2.90625,0.5 -2.875,0.5 -0.84375,1.5 c -0.46384,0.825 -2.10502,4.2 -3.625,7.5 l -2.75,6 0,18 0,18 -11.5,0.5 -11.5,0.5 -0.0625,47 -0.0625,47 -6.4375,0 -6.4375,0 -0.5,-6.4375 -0.5,-6.4375 -2.90625,-0.75 L 65,307.09375 43.9375,306.78125 22.90625,306.5 l -1.28125,9 c -1.182454,8.24586 -2.538075,17.1737 -5.5,36 -0.605717,3.85 -1.408208,7.32079 -1.75,7.71875 L 13.75,359.9375 0,360 l 1161.8437,0 -4,-3.96875 -6.5312,-6.46875 0,-1.375 c 0,-0.74834 1.6088,-4.07272 3.5625,-7.40625 l 3.5313,-6.0625 -0.4063,-1.125 -0.4375,-1.09375 -5,-1.8125 -5,-1.8125 -2.25,-2.375 -2.25,-2.40625 0.5312,-1.375 0.5313,-1.375 58.75,-0.6875 C 1235.1927,320.29054 1319.5601,320 1390.3437,320 l 128.6876,0 3.5312,2.75 c 1.9426,1.5125 4.3857,3.252 5.4062,3.875 l 1.8438,1.125 -0.7812,0.8125 -0.75,0.8125 -6.875,-3.34375 -6.9063,-3.3125 -1.5937,0.59375 -1.5938,0.625 -2.5312,5.78125 c -3.103,7.04922 -5.2758,11.9362 -10.7813,24.28125 l -2.6875,6 205.5,0 0,-19.6875 0,-24.21875 -1.0312,-1.03125 -1.0313,-1.03125 -21.4687,-0.25 -21.4688,-0.28125 -0.094,-21.5 -0.062,-21.5 -2.8126,-9 c -1.5397,-4.95 -3.2379,-9.5625 -3.7812,-10.25 l -1,-1.25 -19.3125,0 -19.3125,0 -0.5938,0.96875 c -0.5343,0.86461 -4.3725,14.06471 -7.5,25.84375 l -1.1562,4.34375 -7.6875,-0.59375 c -4.2299,-0.32507 -9.7632,-0.59275 -12.3125,-0.59375 l -4.6562,0 -24.3438,-12.3125 c -42.1531,-21.2775 -70.5086,-32.25749 -112.375,-43.59375 -33.1119,-8.96579 -48.6908,-11.77188 -89.5,-16.125 l -18.5,-2 -24.5,-0.59375 -24.5,-0.59375 -21.625,1.625 -21.5938,1.65625 -20.4062,3.4375 -20.375,3.4375 -15.5,4 c -8.525,2.2064 -16.625,4.30228 -18,4.65625 -16.6681,4.29092 -41.9257,13.27189 -63.5,22.5625 -8.8,3.78958 -16.5006,6.87499 -17.125,6.875 -1.2055,3e-5 -6.9562,1.65748 -19.7188,5.71875 l -7.8437,2.5 -0.8437,-0.84375 -0.8438,-0.875 2.9062,-11 c 3.7785,-14.31876 5.2756,-18.11065 10.0313,-25.46875 2.1684,-3.35495 3.9375,-6.37872 3.9375,-6.71875 l 0,-0.625 -12.25,0.625 -12.25,0.59375 -11,1.96875 c -10.1799,1.81105 -18.0942,3.90558 -23,6.125 -1.1,0.49765 -3.575,1.53859 -5.5,2.3125 -1.925,0.77392 -7.5149,3.73676 -12.4062,6.5625 -8.2828,4.78489 -10.5938,5.81263 -10.5938,4.6875 0,-0.65537 2.5663,-10.03773 4.8125,-17.5625 1.0672,-3.575 6.2712,-17.23364 11.5625,-30.34375 5.2912,-13.1101 9.625,-24.4726 9.625,-25.25 l 0,-1.40625 -0.875,0 c -1.3092,0 -29.848,9.45853 -36.125,11.96875 -18.2732,7.30758 -38.4977,17.77962 -52,26.9375 -13.87145,9.74357 -29.68707,26.8649 -40.625,42.09375 -8.93113,12.12213 -19.54138,28.63848 -23.25,36.1875 l -1.3752,2.8125 -1.6875,0 c -0.92131,0 -2.1025,-0.42907 -2.625,-0.9375 -1.38146,-1.34424 -12.56386,-7.42612 -22.9375,-12.46875 l -9,-4.375 -10,-3.21875 -10,-3.25 -16,-0.78125 -16,-0.78125 -17.5,0.53125 -17.5,0.5 -0.8125,0.75 -0.8125,0.75 2.96875,8.875 c 6.67455,20.00543 10.15625,31.37138 10.15625,33.21875 l 0,1.96875 -2.25,0.59375 c -1.2375,0.33164 -4.3756,0.617 -6.96875,0.625 l -4.71875,0 -0.90625,1.75 c -0.50603,0.9625 -1.24091,4.09254 -1.625,6.9375 l -0.6875,5.15625 -1.1875,1.59375 -1.15625,1.59375 -12.40625,-0.6875 L 700,321.6875 679.40625,308.09375 658.8125,294.5 l -9,-2.375 c -4.95,-1.3128 -9.33933,-2.69962 -9.75,-3.0625 l -0.75,-0.65625 -0.125,-67.9375 C 639.11277,183.09442 638.77709,146.65 638.4375,139.5 l -0.625,-13 -38.1875,-0.25 -38.21875,-0.21875 -0.4375,0.71875 c -0.23993,0.4041 -0.75869,16.71325 -1.15625,36.21875 l -0.71875,35.46875 -4.15625,4.71875 -4.125,4.75 -1.09375,0.0625 -1.125,0.0312 -0.625,-9.75 c -0.33953,-5.3625 -1.1224,-25.95 -1.75,-45.75 -0.62759,-19.8 -1.65725,-42.3 -2.28125,-50 L 542.8125,88.5 l -3.5,-0.5 -3.5,-0.5 -0.5,-6 -0.5,-6 -31.5,0 -31.5,0 -0.5,6.96875 -0.5,6.9375 -2.5,0.59375 -2.5,0.59375 -0.1875,9.96875 c -0.11086,5.4742 -0.2234,10.47071 -0.25,11.125 l -0.0625,1.1875 -3.75,0.3125 -3.75,0.3125 -0.5,45.25 -0.5,45.25 -16.375,22 c -8.99839,12.10208 -16.64839,21.991 -17,22 -1.67228,0.0406 -23.76384,-7.44339 -24.8125,-8.40625 L 397.40625,238.5 397.21875,179.75 397,121 l -0.59375,-6.25 -0.59375,-6.21875 -4.5,-2.28125 -4.5,-2.3125 -24.40625,0.5625 -24.375,0.5625 -1,0.625 -1,0.59375 0.5625,49.375 0.59375,49.40625 -2.5625,5.59375 -2.59375,5.59375 0.71875,11.875 0.6875,11.875 -1.125,0 -1.09375,0 -1.5,-3.53125 -1.46875,-3.5625 -1.21875,-0.40625 c -0.67012,-0.23229 -2.79375,-0.10102 -4.71875,0.3125 l -3.5,0.75 -0.5,5.96875 -0.5,5.96875 -6.5,0.5 -6.5,0.5 -0.5,16.5 -0.5,16.5 -4.5,-0.28125 c -2.475,-0.14817 -4.99098,-0.44169 -5.59375,-0.65625 l -1.09375,-0.375 -0.5625,-28.15625 -0.5625,-28.1875 -0.625,-0.625 -0.625,-0.625 -12.375,0.28125 -12.34375,0.28125 -0.5,-0.84375 c -0.2791,-0.45371 -0.78957,-12.0625 -1.125,-25.8125 -0.33544,-13.75 -0.8717,-33.80669 -1.1875,-44.5625 l -0.59375,-19.5625 1.34375,-1.03125 c 0.73491,-0.57479 4.04375,-1.55154 7.34375,-2.1875 l 6,-1.15625 1.09375,-1.5 1.09375,-1.46875 0.75,-11.75 C 280.16607,104.80745 280.57465,97.91723 280.65625,96 L 280.8125,92.53125 274.625,91.5 c -3.3994,-0.55777 -6.4796,-1.31563 -6.84375,-1.6875 L 267.125,89.15625 266.46875,75.875 265.8125,62.59375 263.3125,62 l -2.5,-0.59375 -0.5,-14.4375 -0.5,-14.46875 -2,0 -2,0 z m 1079.7812,177.40625 0.9063,0.875 0.875,0.875 -6.125,7.6875 c -3.3667,4.21766 -6.5396,7.65625 -7.0625,7.65625 l -0.9688,0 0.3126,-8.25 0.2812,-8.25 5.9062,-0.3125 5.875,-0.28125 z m -63.4687,0.1875 c 0.5082,0.008 0.9504,0.0157 1.2813,0.0625 l 2.4062,0.34375 0.3125,6.90625 0.2813,6.90625 -0.9063,0.90625 -0.9063,0.90625 -6.125,-6.71875 c -3.3781,-3.68652 -6.1562,-7.06325 -6.1562,-7.5 l 0,-0.78125 4.3438,-0.65625 c 1.7916,-0.26871 3.944,-0.39773 5.4687,-0.375 z m 71.4687,0.65625 6.0626,0.625 6.0624,0.625 0.9376,0.9375 0.9374,0.9375 -5.9062,7 -5.875,7 -1.0938,0.0625 -1.125,0.0625 -0.5624,-7.6875 -0.5938,-7.71875 0.5625,-0.90625 0.5937,-0.9375 z m -58.2812,0.15625 6.25,0.28125 6.25,0.3125 0.3125,6.40625 0.2813,6.375 -0.8126,0.84375 -0.8124,0.8125 -5.75,-6.40625 c -3.1499,-3.52179 -5.7188,-6.88552 -5.7188,-7.5 l 0,-1.125 z m 30,0 0,0.625 c 0,0.34085 -2.5528,3.72085 -5.6875,7.53125 -3.1347,3.81039 -5.8488,6.9375 -6.0313,6.9375 -0.9306,0 -1.3663,-3.34527 -1.0937,-8.625 l 0.3125,-5.875 6.25,-0.3125 6.25,-0.28125 z m -73.2812,1 5.875,0.28125 5.9062,0.3125 0.2812,7.25 0.3126,7.25 -1.3126,-0.125 -1.2812,-0.125 -5.9375,-6.375 -5.9375,-6.40625 1.0312,-1.03125 1.0626,-1.03125 z m 123.8437,1.59375 3.9687,0.21875 c 2.181,0.11642 5.8813,0.48272 8.2188,0.8125 l 4.25,0.59375 0,1.21875 0,1.1875 -8.2812,8.25 c -4.5491,4.52535 -8.599,8.21875 -9,8.21875 l -0.7188,0 0.125,-7.25 c 0.065,-3.9875 0.4147,-8.6 0.7812,-10.25 l 0.6563,-3 z m -132.0625,1 0.2812,9.25 0.2813,9.25 -1.2813,-0.0312 -1.2812,-0.0312 -6.9062,-8.03125 -6.875,-8.03125 0.9687,-0.9375 0.9375,-0.96875 6.9375,-0.25 6.9375,-0.21885 z m 46.5,0.5 1.25,0.0625 1.25,0.0625 5.75,6.84375 c 3.1625,3.75896 5.75,7.33324 5.75,7.9375 l 0,1.09375 -6.3438,0 -6.3124,0 -0.6876,-0.65625 -0.6562,-0.6875 0,-7.3125 0,-7.34375 z m 38.1875,0 0.9063,0 -0.3126,7.75 -0.2812,7.75 -6.1562,0.28125 -6.1563,0.3125 -0.6563,-1.0625 -0.6562,-1.0625 6.2188,-6.96875 c 3.4161,-3.84393 6.6006,-7 7.0937,-7 z m 69.8125,1.71875 5.8438,0.59375 c 3.2079,0.3353 6.583,0.8981 7.5,1.25 l 1.6562,0.65625 0,1.15625 c 0,0.64433 -3.0022,5.10942 -6.6562,9.90625 -3.6541,4.79684 -7.0291,8.71875 -7.5,8.71875 l -0.8438,0 -0.125,-2 c -0.075,-1.1 -0.1562,-3.35 -0.1562,-5 0,-1.65 0.081,-5.7779 0.1562,-9.15625 l 0.125,-6.125 z m -177.9688,0.1875 0.9688,0.59375 1,0.625 0,10.4375 0,10.4375 -0.9375,0 c -0.5237,0 -4.3549,-3.91965 -8.5,-8.71875 l -7.5313,-8.71875 1.2188,-1.15625 1.25,-1.15625 6.25,-1.1875 6.2812,-1.15625 z m 128.0626,0.0937 1,0 1,0 -0.3126,8.15625 -0.2812,8.1875 -1,0.15625 c -0.55,0.0806 -2.8929,-0.0466 -5.1875,-0.25 l -4.1563,-0.34375 -1,-1.21875 -1,-1.21875 5.4688,-6.71875 5.4688,-6.75 z m -78.4688,0.0625 6.875,6.9375 6.875,6.90625 -2.4375,0.90625 c -1.3365,0.49903 -4.5301,1.2174 -7.0937,1.59375 l -4.6563,0.6875 -0.4375,-0.78125 c -0.5988,-1.11371 -0.293,-15.11317 0.3438,-15.75 l 0.5312,-0.5 z m -19.875,2.96875 6.1875,6.96875 6.1875,6.96875 -0.5625,0.90625 -0.5313,0.90625 -3.7812,0.6875 c -2.0685,0.3749 -4.6647,0.88953 -5.7812,1.15625 l -2.0313,0.46875 -0.7187,-0.71875 -0.7188,-0.71875 0,-7.75 0,-7.78125 0.875,-0.53125 0.875,-0.5625 z m 172.3438,0.71875 5.9687,1.25 5.9375,1.28125 0,1.46875 0,1.5 -6.5312,9.875 -6.5313,9.875 -1.0313,0 -1,0 0.2813,-12.125 0.3125,-12.125 1.3125,-0.5 1.2813,-0.5 z m -53.9063,0.25 0.9063,0.5625 0.9062,0.5625 0,7.4375 0,7.4375 -3.25,-0.15625 c -1.7875,-0.0824 -4.4875,-0.33338 -6,-0.5625 l -2.75,-0.40625 0,-1.5625 0,-1.53125 5.0938,-5.90625 5.0937,-5.875 z m -169.7813,0.25 c 0.1146,-0.002 0.1943,0.007 0.2188,0.0312 0.5415,0.5417 0.8352,8.42108 0.5938,15.96875 l -0.2188,6.7501 -0.9375,0 c -0.5096,0 -3.8858,-3.87116 -7.5313,-8.59375 l -6.625,-8.59375 0.3438,-1.0625 0.3438,-1.0625 6.8437,-1.875 c 3.2867,-0.90035 6.1672,-1.5492 6.9687,-1.5625 z m 29.25,1.84375 6.1563,7.34375 6.1875,7.34375 0,1.40625 0,1.40625 -4.75,1.3125 c -2.6125,0.72516 -5.4423,1.50424 -6.2812,1.75 l -1.5313,0.46875 -0.7187,-0.71875 -0.7188,-0.75 0,-9.25 0,-9.28125 0.8125,-0.5 0.8437,-0.53125 z m 164.5626,0.9063 0.7812,0 0,9.4375 0,9.4375 -0.75,0.4375 c -0.9336,0.54855 -10.6365,-1.90724 -13.4375,-3.40625 l -2.0625,-1.125 7.3438,-7.375 c 4.0419,-4.06913 7.6986,-7.40625 8.125,-7.40625 z m 49.7812,1.78125 6.4375,1.75 6.4375,1.75 0.5,1.25 0.4688,1.25 -4.5,7.375 c -2.4881,4.0466 -5.6657,9.03125 -7.0626,11.09375 -1.397,2.0625 -2.931,3.75 -3.4062,3.75 l -0.875,0 0,-7.34375 c 0,-4.04432 -0.273,-10.13163 -0.625,-13.5 l -0.6562,-6.125 1.6562,-0.625 1.625,-0.625 z m -266.125,1.03125 1.0625,0.65625 1.0625,0.65625 0,13.375 0,13.375 -0.7812,0.46875 -0.75,0.5 -3.5,-5.59375 c -1.9154,-3.06642 -5.1864,-8.2505 -7.2813,-11.53125 l -3.8125,-5.96875 0.4688,-1.1875 0.4687,-1.21875 6.5313,-1.75 6.5312,-1.78125 z m 239.125,1.03125 0,11.5625 0,11.59375 -2.25,-0.125 c -1.2375,-0.0615 -4.6125,-1.01758 -7.5,-2.125 l -5.25,-2 0,-1.15625 c 0,-1.35408 12.4859,-16.91194 13.9688,-17.40625 l 1.0312,-0.34375 z m -211,1.15625 0.9375,0 c 0.5235,0 3.9268,3.4875 7.5313,7.75 l 6.5312,7.75 -0.25,1.40625 -0.25,1.4375 -5,1.75 c -2.75,0.96703 -6.0125,1.80115 -7.25,1.84375 l -2.25,0.0625 0,-11 0,-11 z m 261.0625,2.84375 6.4375,2.15625 c 3.556,1.18337 6.7275,2.57089 7.0312,3.0625 l 0.5626,0.875 -1.4688,2.28125 c -1.7476,2.70847 -8.0182,13.93936 -10.3438,18.53125 l -1.6562,3.25 -1.3125,0 -1.3125,0 0,-14.4375 0,-14.4375 1.0312,-0.625 1.0313,-0.65625 z m -29.25,0.15625 0.8125,0 -0.062,14.15625 -0.062,14.1875 -1,0.25 c -0.55,0.14021 -3.8125,-1.04351 -7.25,-2.625 l -6.25,-2.875 0,-1.5625 0,-1.53125 6.5,-10 c 3.5777,-5.49579 6.8722,-10 7.3125,-10 z m -282.5,1.09375 0.8437,0.5 0.8438,0.53125 0,6.4375 0,6.4375 -4.9062,0 -4.9376,0 -2.0624,-3.375 c -1.1449,-1.85242 -2.0938,-4.02466 -2.0938,-4.84375 l 0,-1.5 6.1562,-2.09375 6.1563,-2.09375 z m 30.2813,1.03125 2.5312,3.1875 c 6.808,8.57476 11.875,15.60101 11.875,16.46875 l 0,0.96875 -6.0625,2.625 c -3.3363,1.44689 -6.9363,2.625 -8,2.625 l -1.9375,0 0,-12.4375 0,-12.4375 0.8125,-0.5 0.7813,-0.5 z m 130.0937,0.78125 7.4063,0.28125 7.4062,0.3125 0,38 0,38 -7.75,0.15625 -7.75,0.1875 -0.5625,-0.96875 -0.5937,-0.9375 0.094,-36.6875 0.125,-36.6875 0.8125,-0.84375 0.8125,-0.8125 z m -23.1875,1.59375 8.5,0 8.5,0 0.1875,34.71875 0.1563,34.6875 -0.75,2.8125 -0.7188,2.78125 -7.7188,0.28125 -7.6874,0.3125 -0.5,-1.3125 c -0.2738,-0.71319 -0.3633,-17.70866 -0.2188,-37.78125 l 0.25,-36.5 z m 43,0 6,0.375 c 3.2956,0.2017 7.0232,0.74048 8.2812,1.21875 l 2.2813,0.875 -0.1563,31.28125 -0.125,31.25 -0.6562,4.5 -0.625,4.5 -7.25,0.28125 -7.2812,0.3125 -0.5,-1.3125 c -0.2746,-0.71439 -0.3634,-17.48389 -0.2188,-37.28125 l 0.25,-36 z m -47.4688,0.21875 -0.2812,37.375 -0.25,37.40625 -8.0312,0.28125 -8.0626,0.28125 -0.6874,-0.6875 -0.7188,-0.71875 0,-35.75 0,-35.78125 0.8438,-0.53125 c 0.4653,-0.28752 4.5083,-0.81292 9,-1.1875 l 8.1874,-0.6875 z m 69.8126,2.25 4.8437,1.125 c 2.6516,0.62621 5.8177,1.52633 7.0625,2 l 2.2812,0.875 -0.2812,33.78125 -0.25,33.75 -7.0312,0.28125 -7.0626,0.3125 -0.6874,-0.71875 -0.7188,-0.71875 0,-34.75 0,-34.78125 0.9375,-0.59375 0.9063,-0.5625 z m 130.9374,0.0312 6.3126,2.375 6.3124,2.375 0.3438,1.03125 0.3438,1 -6.9688,14.625 C 1479.6013,268.44117 1476.1896,275 1475.875,275 l -0.5625,0 0,-17.4375 0,-17.4375 0.9062,-0.5625 0.875,-0.5625 z m -225.9374,0.71875 1.5937,0.625 1.5937,0.59375 -0.2812,35.28125 -0.25,35.28125 -7.25,0.28125 -7.2812,0.3125 -0.5,-1.3125 c -0.2746,-0.71566 -0.3639,-16.34041 -0.2188,-34.71875 l 0.25,-33.40625 6.1875,-1.46875 6.1563,-1.46875 z m -98.9376,0.21875 1.5626,2.96875 c 0.8483,1.64067 1.5312,3.45394 1.5312,4.03125 l 0,1.0625 -1.8438,0 c -2.5052,5e-5 -3.1562,-0.84393 -3.1562,-4.0937 l 0,-2.78125 0.9688,-0.59375 0.9374,-0.59375 z M 1123.375,240 c 0.8849,0 1.7359,4.13619 1.1875,5.78125 l -0.4062,1.21875 -7,0 -7,0 0.3437,-1.09375 0.375,-1.125 5.9063,-2.375 C 1120.0178,241.0895 1122.9825,240 1123.375,240 z m 326,0 -0.2813,15.25 -0.2812,15.21875 -1.5,0.15625 -1.5,0.15625 -6.2188,-3.125 -6.2187,-3.15625 -0.031,-1.34375 c -0.014,-0.74205 3.0063,-6.24837 6.7188,-12.21875 l 6.75,-10.84375 1.2812,-0.0625 1.2813,-0.0312 z m -82.5313,3.96875 8,2.25 7.9688,2.28125 0,31 0,31 -8.5625,0.28125 -8.5313,0.28125 -0.7187,-0.6875 -0.6875,-0.71875 0,-32.34375 0,-32.375 1.2812,-0.5 1.25,-0.46875 z m -134.75,1.03125 2.4376,0 -0.5938,32.5625 -0.5938,32.59375 -0.5624,0.90625 -0.5938,0.9375 -7.2812,0 -7.25,0 -0.6876,-0.65625 -0.6562,-0.6875 0,-30.1875 0,-30.21875 1.25,-1.03125 C 1219.2384,247.85064 1229.0613,245 1232.0937,245 z m 239.2188,1 0,18.5 0,18.5 -1.25,-0.0625 c -1.8869,-0.0834 -15.1539,-7.64899 -15.5625,-8.875 l -0.3437,-1.0625 7.3124,-13.46875 7.3438,-13.46875 1.25,-0.0312 1.25,-0.0313 z m 28.9062,0.6875 7.8126,3.53125 7.7812,3.53125 -0.1875,1.90625 c -0.1086,1.04414 -3.8356,9.42337 -8.2813,18.625 L 1499.25,291 l -0.875,0 -0.8437,0 0.5,-21.25 0.5,-21.25 0.8437,-0.90625 0.8437,-0.90625 z m -289.5937,4.25 0.875,0.84375 0.8437,0.84375 -0.2812,29.4375 -0.25,29.4375 -8.6562,0.28125 -8.6876,0.28125 -0.5937,-0.96875 -0.625,-1 0.625,-26.3125 0.625,-26.28125 0.6563,-0.59375 c 0.3597,-0.32942 3.9862,-1.80193 8.0624,-3.28125 l 7.4063,-2.6875 z m 179.3437,0 7.4376,2.84375 7.4062,2.8125 0,26.96875 0,26.9375 -8.2812,0.28125 -8.25,0.3125 -0.5626,-1.4375 -0.5312,-1.4375 0.3125,-27.5625 0.3125,-27.5625 1.0938,-1.0625 1.0624,-1.09375 z M 1156.5313,252 l 1.3437,0 1.375,0 3.5625,5.5625 3.5625,5.5625 -0.625,0.96875 c -0.3283,0.53107 -3.2245,2.29981 -6.4687,3.9375 -3.2444,1.63769 -6.5969,2.96875 -7.4376,2.96875 l -1.5312,0 0,-5.96875 0,-5.96875 3.0938,-3.53125 3.125,-3.53125 z m 335.8124,2.8125 -0.25,20.25 -0.2812,20.28125 -1,0.25 -1,0.25 -6.75,-4.46875 c -3.7125,-2.45584 -6.75,-4.84235 -6.75,-5.28125 0,-0.43891 3.0732,-7.45359 6.8438,-15.625 l 6.875,-14.875 1.1562,-0.375 1.1562,-0.40625 z m 25.9688,2.1875 2.0312,0 2.0313,0 5.9063,2.96875 c 3.2442,1.63769 6.134,3.38407 6.4374,3.875 l 0.5626,0.90625 -5.0938,12.375 c -2.7988,6.80889 -5.984,14.625 -7.0625,17.375 -1.0785,2.75 -2.589,5.66339 -3.375,6.46875 l -1.4375,1.46875 0,-22.71875 0,-22.71875 z M 1411,259.0625 l 7.9063,3.34375 7.9062,3.3125 -0.2188,21.65625 -0.1874,21.6875 -0.625,0.96875 -0.5938,0.96875 -7.2812,0 -7.25,0 -0.6876,-0.65625 -0.6562,-0.6875 0,-24.75 0,-24.78125 0.8438,-0.53125 0.8437,-0.53125 z m -222.1875,1.4375 0,25.5 0,25.5 -7.75,0.28125 -7.7812,0.3125 -0.5,-1.3125 c -0.2779,-0.72438 -0.3988,-10.98256 -0.25,-22.78125 l 0.2812,-21.46875 5.8438,-2.78125 c 3.2153,-1.54106 6.8152,-2.90959 8,-3.03125 l 2.1562,-0.21875 z m 350.5,6.5 1.5312,0 c 0.8407,0 4.2157,1.34208 7.5,3 l 5.9688,3.03125 -0.031,1.21875 c -0.01,0.67958 -2.8211,6.39912 -6.25,12.6875 l 0.031,0 -6.25,11.4375 -1.25,0.40625 -1.25,0.375 0,-16.0625 0,-16.09375 z m -27.0625,1 1,0 0.9687,0 -0.3437,13.75 c -0.1845,7.5625 -0.3715,17.0125 -0.4375,21 l -0.125,7.25 -1.375,0 -1.375,0 -1.3125,-1.5625 c -0.718,-0.8652 -2.9389,-2.4179 -4.9375,-3.4375 -1.9986,-1.0196 -4.1853,-2.54387 -4.875,-3.375 l -1.2812,-1.5 6.4374,-14.3125 c 3.5335,-7.87156 6.693,-15.1 7.0313,-16.0625 l 0.625,-1.75 z m -80.7187,1 1.2187,0 c 0.6677,0 4.5378,1.72899 8.625,3.84375 l 7.4375,3.84375 -0.031,15.40625 0,15.40625 -0.7188,1.75 -0.6875,1.75 -7.9687,0 -7.9688,0 -0.625,-1 -0.625,-1 0.2188,-15.75 c 0.1212,-8.66505 0.445,-17.6625 0.6874,-20 l 0.4376,-4.25 z m -290.3126,0.65625 1.2188,2.71875 1.2188,2.6875 -0.9063,0.84375 c -0.5076,0.47456 -3.4794,2.29538 -6.5937,4.03125 l -5.6563,3.15625 -0.5625,-0.875 -0.5312,-0.875 5.9062,-5.84375 5.9062,-5.84375 z m 25.1876,0.34375 1.625,0 -0.4376,19.75 c -0.2293,10.8625 -0.5891,20.3125 -0.8124,21 l -0.4063,1.25 -7.875,0 c -4.3256,0 -8.0521,-0.17721 -8.2813,-0.40625 -0.2286,-0.22904 -0.335,-7.71401 -0.25,-16.625 l 0.1563,-16.21875 1.3437,-1.25 c 2.0582,-1.93779 13.125,-7.498 14.9376,-7.5 z m 396.4062,7.0625 2.4688,1.875 2.4687,1.875 -2.4375,5.34375 c -1.3251,2.93495 -2.7332,5.74553 -3.1562,6.25 l -0.7813,0.9375 -0.5937,-1.53125 -0.5626,-1.53125 0.2813,-6.3125 0.3125,-6.3125 1,-0.3125 1,-0.28125 z m -29.125,0.9375 0.8438,0 0.8437,0 -0.2813,16.25 -0.2812,16.25 -6.25,0.3125 -6.2812,0.28125 -0.5313,-1.40625 -0.5313,-1.375 6.2188,-15.15625 6.25,-15.15625 z m -79.3438,0.875 7.375,4.0625 c 4.0547,2.23815 7.8656,4.70425 8.5,5.46875 l 1.1563,1.375 -0.2813,10.875 -0.2812,10.84375 -8.5625,0.28125 -8.5313,0.28125 -0.7187,-0.6875 -0.6875,-0.71875 0,-15.25 0,-15.28125 1,-0.625 1.0312,-0.625 z m -310.7187,2.03125 0.875,0.875 0.875,0.875 -0.2813,14.4375 -0.2812,14.40625 -3.5625,0.3125 -3.5625,0.28125 -4.1875,-7 -4.1875,-7.03125 0,-4.4375 0,-4.4375 7.1562,-4.15625 7.1563,-4.125 z m 412.6875,2.9375 0,10.9375 0,10.9375 -2.0625,2.65625 -2.0937,2.625 -5.4063,0 -5.4375,0 0,-1.53125 c 0,-1.45293 3.7937,-9.21188 9.75,-19.90625 l 2.75,-4.90625 1.25,-0.40625 1.25,-0.40625 z m -80,8.03125 2.4375,1.3125 c 1.3455,0.71858 4.9778,2.78573 8.0625,4.59375 l 5.5938,3.28125 -0.2813,5.21875 -0.3125,5.21875 -8.0312,0.28125 -8.0626,0.28125 -0.6874,-0.6875 -0.7188,-0.71875 0,-8.75 0,-8.78125 1,-0.625 1,-0.625 z m 20.8125,12.90625 3.0937,2.3125 c 1.7039,1.25966 3.0938,2.64718 3.0938,3.09375 l 0,0.8125 -3.4375,0 -3.4375,0 -0.6562,-2.09375 -0.6563,-2.09375 1,-1 1,-1.03125 z M 1529.0625,321 l 8.5625,0 8.5625,0 0.6562,1.03125 0.625,1.0625 -2.625,3.4375 -2.625,3.46875 -1.3124,0 c -1.494,0 -8.4338,-4.87232 -10.4688,-7.34375 L 1529.0625,321 z"
     id="path3164"
     inkscape:connector-curvature="0" />
</svg>
